<svg width="1200" height="600" viewBox="0 0 1200 600" fill="none" xmlns="http://www.w3.org/2000/svg">
<path d="M136 296.692V387.363H158.544H181.087L181.13 343.408L181.193 299.454L238.007 346.727C269.251 372.719 294.949 394 295.118 394C295.351 394 295.393 379.27 295.393 303.543V213.087H272.849H250.306L250.263 256.656L250.2 300.246L195.164 254.814C164.894 229.829 139.196 208.633 138.074 207.691L136 206V296.692Z" fill="white"/>
<path d="M323.55 300.222V387.36H347.046H370.542V355.245V323.13H405.893H441.243V303.005V282.88L405.956 282.837L370.648 282.773L370.585 269.327L370.542 255.903H409.385H448.228V234.494V213.084H385.889H323.55V300.222Z" fill="white"/>
<path d="M455.217 234.601V256.117H478.502H501.786V321.739V387.36H525.283H548.779V321.739V256.117H571.534H594.29V234.601V213.084H524.753H455.217V234.601Z" fill="white"/>
<path d="M614.603 300.222V387.36H630.055H645.508V356.851V326.342H664.644C676.201 326.342 684.647 326.256 685.96 326.128C698.618 324.843 709.032 320.047 718.897 310.948C728.634 301.956 734.222 291.187 736.148 277.634C736.529 275.022 736.508 264.403 736.127 261.684C734.031 246.504 727.808 235.414 716.102 225.865C708.228 219.442 699.74 215.567 689.516 213.683L686.891 213.191L650.758 213.126L614.603 213.084V300.222ZM685.473 242.051C696.057 244.856 703.169 252.542 705.349 263.504C705.9 266.309 705.9 273.438 705.328 276.136C704.143 281.874 701.793 286.391 698.025 290.181C693.876 294.356 688.944 296.86 682.975 297.76C681.345 298.017 677.598 298.081 663.247 298.081H645.508V269.713V241.323L664.411 241.388L683.292 241.473L685.473 242.051Z" fill="white"/>
<path d="M1007.27 237.17V261.256H999.227H991.183V274.958V288.66H999.227H1007.27V338.01V387.36H1022.09H1036.91V338.01V288.66H1050.45H1064V274.958V261.256H1050.45H1036.91V237.17V213.084H1022.09H1007.27V237.17Z" fill="white"/>
<path d="M807.758 257.75C807.42 257.793 806.086 257.942 804.795 258.071C794.423 259.12 784.029 262.888 775.266 268.776C771.075 271.623 768.09 274.085 764.47 277.747C755.749 286.525 750.245 296.245 747.409 307.827C743.683 323.05 745.44 340.542 752.045 353.859C758.84 367.582 771.371 379.529 785.32 385.545C797.64 390.876 812.309 392.525 826.28 390.148C840.018 387.793 851.83 381.691 862.032 371.65C867.875 365.87 871.939 360.239 875.305 353.216C878.056 347.457 879.898 341.291 880.914 334.483C881.359 331.507 881.422 330.436 881.422 324.313C881.401 318.297 881.337 317.076 880.935 314.357C879.009 301.833 874.691 291.941 867.091 282.628C865.165 280.273 860.297 275.349 857.926 273.358C847.808 264.858 836.843 260.041 823.317 258.135C821.009 257.814 809.388 257.514 807.758 257.75ZM817.495 285.026C827.254 285.968 834.916 289.822 841.817 297.272C844.611 300.27 846.326 302.775 848.083 306.329C850.877 312.024 852.105 317.462 852.105 324.292C852.105 333.798 849.565 341.719 844.188 348.934C842.706 350.947 838.557 355.186 836.758 356.556C834.895 357.991 830.154 360.795 828.968 361.181C828.884 361.224 828.503 361.373 828.1 361.545C827.211 361.909 824.079 362.872 823.211 363.043C822.872 363.108 822.237 363.215 821.835 363.258C821.433 363.322 820.755 363.472 820.353 363.6C819.887 363.75 817.411 363.793 813.579 363.75C808.055 363.664 807.335 363.6 804.985 363.108C793.555 360.603 784.749 353.88 779.52 343.668C777.425 339.6 776.261 336.11 775.435 331.485C774.991 328.895 775.054 319.325 775.562 316.605C777.234 307.378 781.997 299.221 789.236 293.162C796.624 286.974 806.89 284.02 817.495 285.026Z" fill="white"/>
<path d="M965.888 258.922C957.463 259.329 949.631 261.855 943.281 266.244C939.365 268.942 935.047 273.802 932.951 277.849L932.02 279.647L931.914 270.505L931.808 261.363H917.096H902.385L902.321 324.351L902.279 387.36H917.096H931.893L931.977 351.349C932.041 318.998 932.083 315.144 932.401 313.646C934.01 305.853 936.634 300.714 941.355 296.133C942.392 295.126 943.958 293.82 944.826 293.221C948.404 290.78 953.166 288.875 957.739 288.018C962.417 287.14 969.931 287.226 975.689 288.189L977.848 288.575V274.08V259.586L977.361 259.457C975.414 258.965 970.228 258.73 965.888 258.922Z" fill="white"/>
</svg>
